<svg xmlns="http://www.w3.org/2000/svg" viewBox="0 0 100 100">
  <path d="M60,20 C60,20 65,15 70,20 C75,25 70,30 70,30 L30,80 C30,80 25,85 20,80 C15,75 20,70 20,70 L60,20 Z" fill="#f97316" stroke="#333" stroke-width="2"/>
  <path d="M65,25 L25,75" fill="none" stroke="#e7e5e4" stroke-width="1"/>
  <path d="M55,15 C55,15 45,5 35,15 C25,25 35,35 35,35" fill="none" stroke="#15803d" stroke-width="2"/>
  <path d="M50,10 C50,10 45,0 35,5 C25,10 30,20 30,20" fill="none" stroke="#15803d" stroke-width="2"/>
  <path d="M45,15 C45,15 40,5 30,10 C20,15 25,25 25,25" fill="none" stroke="#15803d" stroke-width="2"/>
</svg>