<svg xmlns="http://www.w3.org/2000/svg" viewBox="0 0 100 150">
  <!-- Card background with rounded corners -->
  <rect x="5" y="5" width="90" height="140" rx="10" ry="10" fill="white" stroke="#e2e8f0" stroke-width="2"/>
  
  <!-- Top left value and suit -->
  <text x="15" y="30" font-family="Arial" font-size="24" font-weight="bold" fill="#000000">9</text>
  <text x="15" y="50" font-family="Arial" font-size="24" fill="#000000">♠</text>
  
  <!-- Bottom right value and suit (inverted) -->
  <text x="85" y="145" font-family="Arial" font-size="24" font-weight="bold" fill="#000000" text-anchor="end" transform="rotate(180, 85, 145)">9</text>
  <text x="85" y="125" font-family="Arial" font-size="24" fill="#000000" text-anchor="end" transform="rotate(180, 85, 125)">♠</text>
  
  <!-- Spade symbols -->
  <path d="M30,35 C30,35 20,45 20,50 C20,55 25,57 30,53 C35,57 40,55 40,50 C40,45 30,35 30,35" fill="#000000"/>
  <path d="M70,35 C70,35 60,45 60,50 C60,55 65,57 70,53 C75,57 80,55 80,50 C80,45 70,35 70,35" fill="#000000"/>
  <path d="M30,60 C30,60 20,70 20,75 C20,80 25,82 30,78 C35,82 40,80 40,75 C40,70 30,60 30,60" fill="#000000"/>
  <path d="M70,60 C70,60 60,70 60,75 C60,80 65,82 70,78 C75,82 80,80 80,75 C80,70 70,60 70,60" fill="#000000"/>
  <path d="M30,85 C30,85 20,95 20,100 C20,105 25,107 30,103 C35,107 40,105 40,100 C40,95 30,85 30,85" fill="#000000"/>
  <path d="M70,85 C70,85 60,95 60,100 C60,105 65,107 70,103 C75,107 80,105 80,100 C80,95 70,85 70,85" fill="#000000"/>
  <path d="M30,110 C30,110 20,120 20,125 C20,130 25,132 30,128 C35,132 40,130 40,125 C40,120 30,110 30,110" fill="#000000"/>
  <path d="M70,110 C70,110 60,120 60,125 C60,130 65,132 70,128 C75,132 80,130 80,125 C80,120 70,110 70,110" fill="#000000"/>
  <path d="M50,75 C50,75 40,85 40,90 C40,95 45,97 50,93 C55,97 60,95 60,90 C60,85 50,75 50,75" fill="#000000"/>
</svg>