<svg xmlns="http://www.w3.org/2000/svg" viewBox="0 0 100 150">
  <!-- Card background with rounded corners -->
  <rect x="5" y="5" width="90" height="140" rx="10" ry="10" fill="white" stroke="#e2e8f0" stroke-width="2"/>
  
  <!-- Top left value and suit -->
  <text x="15" y="30" font-family="Arial" font-size="24" font-weight="bold" fill="#000000">6</text>
  <text x="15" y="50" font-family="Arial" font-size="24" fill="#000000">♣</text>
  
  <!-- Bottom right value and suit (inverted) -->
  <text x="85" y="145" font-family="Arial" font-size="24" font-weight="bold" fill="#000000" text-anchor="end" transform="rotate(180, 85, 145)">6</text>
  <text x="85" y="125" font-family="Arial" font-size="24" fill="#000000" text-anchor="end" transform="rotate(180, 85, 125)">♣</text>
  
  <!-- Club symbols -->
  <path d="M30,45 C30,42 27,40 25,41 C23,42 22,45 24,47 C22,47 20,49 21,51 C22,53 26,53 28,51 L28,53 L32,53 L32,51 C34,53 38,53 39,51 C40,49 38,47 36,47 C38,45 37,42 35,41 C33,40 30,42 30,45" fill="#000000"/>
  <path d="M70,45 C70,42 67,40 65,41 C63,42 62,45 64,47 C62,47 60,49 61,51 C62,53 66,53 68,51 L68,53 L72,53 L72,51 C74,53 78,53 79,51 C80,49 78,47 76,47 C78,45 77,42 75,41 C73,40 70,42 70,45" fill="#000000"/>
  <path d="M50,75 C50,70 45,65 40,67 C35,69 33,75 37,80 C33,80 30,85 32,90 C34,95 42,95 47,90 L47,95 L53,95 L53,90 C58,95 66,95 68,90 C70,85 67,80 63,80 C67,75 65,69 60,67 C55,65 50,70 50,75" fill="#000000"/>
  <path d="M30,105 C30,102 27,100 25,101 C23,102 22,105 24,107 C22,107 20,109 21,111 C22,113 26,113 28,111 L28,113 L32,113 L32,111 C34,113 38,113 39,111 C40,109 38,107 36,107 C38,105 37,102 35,101 C33,100 30,102 30,105" fill="#000000"/>
  <path d="M70,105 C70,102 67,100 65,101 C63,102 62,105 64,107 C62,107 60,109 61,111 C62,113 66,113 68,111 L68,113 L72,113 L72,111 C74,113 78,113 79,111 C80,109 78,107 76,107 C78,105 77,102 75,101 C73,100 70,102 70,105" fill="#000000"/>
  <path d="M50,45 C50,42 47,40 45,41 C43,42 42,45 44,47 C42,47 40,49 41,51 C42,53 46,53 48,51 L48,53 L52,53 L52,51 C54,53 58,53 59,51 C60,49 58,47 56,47 C58,45 57,42 55,41 C53,40 50,42 50,45" fill="#000000"/>
</svg>