<svg xmlns="http://www.w3.org/2000/svg" viewBox="0 0 100 150">
  <!-- Card background with rounded corners -->
  <rect x="5" y="5" width="90" height="140" rx="10" ry="10" fill="white" stroke="#e2e8f0" stroke-width="2"/>
  
  <!-- Top left value and suit -->
  <text x="15" y="30" font-family="Arial" font-size="24" font-weight="bold" fill="#000000">7</text>
  <text x="15" y="50" font-family="Arial" font-size="24" fill="#000000">♣</text>
  
  <!-- Bottom right value and suit (inverted) -->
  <text x="85" y="145" font-family="Arial" font-size="24" font-weight="bold" fill="#000000" text-anchor="end" transform="rotate(180, 85, 145)">7</text>
  <text x="85" y="125" font-family="Arial" font-size="24" fill="#000000" text-anchor="end" transform="rotate(180, 85, 125)">♣</text>
  
  <!-- Club symbols -->
  <path d="M30,40 C30,37 27,35 25,36 C23,37 22,40 24,42 C22,42 20,44 21,46 C22,48 26,48 28,46 L28,48 L32,48 L32,46 C34,48 38,48 39,46 C40,44 38,42 36,42 C38,40 37,37 35,36 C33,35 30,37 30,40" fill="#000000"/>
  <path d="M70,40 C70,37 67,35 65,36 C63,37 62,40 64,42 C62,42 60,44 61,46 C62,48 66,48 68,46 L68,48 L72,48 L72,46 C74,48 78,48 79,46 C80,44 78,42 76,42 C78,40 77,37 75,36 C73,35 70,37 70,40" fill="#000000"/>
  <path d="M50,60 C50,57 47,55 45,56 C43,57 42,60 44,62 C42,62 40,64 41,66 C42,68 46,68 48,66 L48,68 L52,68 L52,66 C54,68 58,68 59,66 C60,64 58,62 56,62 C58,60 57,57 55,56 C53,55 50,57 50,60" fill="#000000"/>
  <path d="M30,80 C30,77 27,75 25,76 C23,77 22,80 24,82 C22,82 20,84 21,86 C22,88 26,88 28,86 L28,88 L32,88 L32,86 C34,88 38,88 39,86 C40,84 38,82 36,82 C38,80 37,77 35,76 C33,75 30,77 30,80" fill="#000000"/>
  <path d="M70,80 C70,77 67,75 65,76 C63,77 62,80 64,82 C62,82 60,84 61,86 C62,88 66,88 68,86 L68,88 L72,88 L72,86 C74,88 78,88 79,86 C80,84 78,82 76,82 C78,80 77,77 75,76 C73,75 70,77 70,80" fill="#000000"/>
  <path d="M50,100 C50,97 47,95 45,96 C43,97 42,100 44,102 C42,102 40,104 41,106 C42,108 46,108 48,106 L48,108 L52,108 L52,106 C54,108 58,108 59,106 C60,104 58,102 56,102 C58,100 57,97 55,96 C53,95 50,97 50,100" fill="#000000"/>
  <path d="M50,30 C50,27 47,25 45,26 C43,27 42,30 44,32 C42,32 40,34 41,36 C42,38 46,38 48,36 L48,38 L52,38 L52,36 C54,38 58,38 59,36 C60,34 58,32 56,32 C58,30 57,27 55,26 C53,25 50,27 50,30" fill="#000000"/>
</svg>