<svg xmlns="http://www.w3.org/2000/svg" viewBox="0 0 100 150">
  <!-- Card background with rounded corners -->
  <rect x="5" y="5" width="90" height="140" rx="10" ry="10" fill="white" stroke="#e2e8f0" stroke-width="2"/>
  
  <!-- Top left value and suit -->
  <text x="15" y="30" font-family="Arial" font-size="24" font-weight="bold" fill="#E31B23">9</text>
  <text x="15" y="50" font-family="Arial" font-size="24" fill="#E31B23">♥</text>
  
  <!-- Bottom right value and suit (inverted) -->
  <text x="85" y="145" font-family="Arial" font-size="24" font-weight="bold" fill="#E31B23" text-anchor="end" transform="rotate(180, 85, 145)">9</text>
  <text x="85" y="125" font-family="Arial" font-size="24" fill="#E31B23" text-anchor="end" transform="rotate(180, 85, 125)">♥</text>
  
  <!-- Heart symbols -->
  <path d="M30,35 C27,32 22,32 22,37 C22,42 30,47 30,47 C30,47 38,42 38,37 C38,32 33,32 30,35" fill="#E31B23"/>
  <path d="M70,35 C67,32 62,32 62,37 C62,42 70,47 70,47 C70,47 78,42 78,37 C78,32 73,32 70,35" fill="#E31B23"/>
  <path d="M30,60 C27,57 22,57 22,62 C22,67 30,72 30,72 C30,72 38,67 38,62 C38,57 33,57 30,60" fill="#E31B23"/>
  <path d="M70,60 C67,57 62,57 62,62 C62,67 70,72 70,72 C70,72 78,67 78,62 C78,57 73,57 70,60" fill="#E31B23"/>
  <path d="M30,85 C27,82 22,82 22,87 C22,92 30,97 30,97 C30,97 38,92 38,87 C38,82 33,82 30,85" fill="#E31B23"/>
  <path d="M70,85 C67,82 62,82 62,87 C62,92 70,97 70,97 C70,97 78,92 78,87 C78,82 73,82 70,85" fill="#E31B23"/>
  <path d="M30,110 C27,107 22,107 22,112 C22,117 30,122 30,122 C30,122 38,117 38,112 C38,107 33,107 30,110" fill="#E31B23"/>
  <path d="M70,110 C67,107 62,107 62,112 C62,117 70,122 70,122 C70,122 78,117 78,112 C78,107 73,107 70,110" fill="#E31B23"/>
  <path d="M50,75 C47,72 42,72 42,77 C42,82 50,87 50,87 C50,87 58,82 58,77 C58,72 53,72 50,75" fill="#E31B23"/>
</svg>