<?xml version="1.0" encoding="UTF-8"?>
<svg width="169" height="244" viewBox="0 0 169 244" fill="none" xmlns="http://www.w3.org/2000/svg">
  <!-- Card background -->
  <rect width="169" height="244" rx="12" fill="white" stroke="#E2E8F0" stroke-width="1"/>
  
  <!-- Top left rank and suit -->
  <text x="12" y="32" font-family="Arial" font-size="24" font-weight="bold" fill="#000000">10</text>
  <path d="M12 45 C9 48, 6 51, 6 54 C6 57, 9 58, 12 55 C15 58, 18 57, 18 54 C18 51, 15 48, 12 45 M12 58 L12 62" fill="#000000"/>
  
  <!-- Bottom right rank and suit (inverted) -->
  <text x="157" y="212" font-family="Arial" font-size="24" font-weight="bold" fill="#000000" transform="rotate(180 157 212)">10</text>
  <path d="M157 189 C154 192, 151 195, 151 198 C151 201, 154 202, 157 199 C160 202, 163 201, 163 198 C163 195, 160 192, 157 189 M157 202 L157 206" fill="#000000"/>
  
  <!-- Center clubs pattern -->
  <g transform="translate(84.5 122)">
    <!-- Row 1 -->
    <g transform="translate(-40 -50)">
      <path d="M0 0 C-3 3, -6 6, -6 9 C-6 12, -3 13, 0 10 C3 13, 6 12, 6 9 C6 6, 3 3, 0 0 M0 13 L0 17" fill="#000000"/>
    </g>
    <g transform="translate(0 -50)">
      <path d="M0 0 C-3 3, -6 6, -6 9 C-6 12, -3 13, 0 10 C3 13, 6 12, 6 9 C6 6, 3 3, 0 0 M0 13 L0 17" fill="#000000"/>
    </g>
    <g transform="translate(40 -50)">
      <path d="M0 0 C-3 3, -6 6, -6 9 C-6 12, -3 13, 0 10 C3 13, 6 12, 6 9 C6 6, 3 3, 0 0 M0 13 L0 17" fill="#000000"/>
    </g>
    
    <!-- Row 2 -->
    <g transform="translate(-40 -15)">
      <path d="M0 0 C-3 3, -6 6, -6 9 C-6 12, -3 13, 0 10 C3 13, 6 12, 6 9 C6 6, 3 3, 0 0 M0 13 L0 17" fill="#000000"/>
    </g>
    <g transform="translate(40 -15)">
      <path d="M0 0 C-3 3, -6 6, -6 9 C-6 12, -3 13, 0 10 C3 13, 6 12, 6 9 C6 6, 3 3, 0 0 M0 13 L0 17" fill="#000000"/>
    </g>
    
    <!-- Row 3 -->
    <g transform="translate(-40 20)">
      <path d="M0 0 C-3 3, -6 6, -6 9 C-6 12, -3 13, 0 10 C3 13, 6 12, 6 9 C6 6, 3 3, 0 0 M0 13 L0 17" fill="#000000"/>
    </g>
    <g transform="translate(0 20)">
      <path d="M0 0 C-3 3, -6 6, -6 9 C-6 12, -3 13, 0 10 C3 13, 6 12, 6 9 C6 6, 3 3, 0 0 M0 13 L0 17" fill="#000000"/>
    </g>
    <g transform="translate(40 20)">
      <path d="M0 0 C-3 3, -6 6, -6 9 C-6 12, -3 13, 0 10 C3 13, 6 12, 6 9 C6 6, 3 3, 0 0 M0 13 L0 17" fill="#000000"/>
    </g>
    
    <!-- Row 4 -->
    <g transform="translate(-40 55)">
      <path d="M0 0 C-3 3, -6 6, -6 9 C-6 12, -3 13, 0 10 C3 13, 6 12, 6 9 C6 6, 3 3, 0 0 M0 13 L0 17" fill="#000000"/>
    </g>
    <g transform="translate(40 55)">
      <path d="M0 0 C-3 3, -6 6, -6 9 C-6 12, -3 13, 0 10 C3 13, 6 12, 6 9 C6 6, 3 3, 0 0 M0 13 L0 17" fill="#000000"/>
    </g>
  </g>
</svg>