<svg xmlns="http://www.w3.org/2000/svg" viewBox="0 0 100 150">
  <!-- Card background with rounded corners -->
  <rect x="5" y="5" width="90" height="140" rx="10" ry="10" fill="white" stroke="#e2e8f0" stroke-width="2"/>
  
  <!-- Top left value and suit -->
  <text x="15" y="30" font-family="Arial" font-size="24" font-weight="bold" fill="#000000">9</text>
  <text x="15" y="50" font-family="Arial" font-size="24" fill="#000000">♣</text>
  
  <!-- Bottom right value and suit (inverted) -->
  <text x="85" y="145" font-family="Arial" font-size="24" font-weight="bold" fill="#000000" text-anchor="end" transform="rotate(180, 85, 145)">9</text>
  <text x="85" y="125" font-family="Arial" font-size="24" fill="#000000" text-anchor="end" transform="rotate(180, 85, 125)">♣</text>
  
  <!-- Club symbols -->
  <path d="M30,35 C30,32 27,30 25,31 C23,32 22,35 24,37 C22,37 20,39 21,41 C22,43 26,43 28,41 L28,43 L32,43 L32,41 C34,43 38,43 39,41 C40,39 38,37 36,37 C38,35 37,32 35,31 C33,30 30,32 30,35" fill="#000000"/>
  <path d="M70,35 C70,32 67,30 65,31 C63,32 62,35 64,37 C62,37 60,39 61,41 C62,43 66,43 68,41 L68,43 L72,43 L72,41 C74,43 78,43 79,41 C80,39 78,37 76,37 C78,35 77,32 75,31 C73,30 70,32 70,35" fill="#000000"/>
  <path d="M30,60 C30,57 27,55 25,56 C23,57 22,60 24,62 C22,62 20,64 21,66 C22,68 26,68 28,66 L28,68 L32,68 L32,66 C34,68 38,68 39,66 C40,64 38,62 36,62 C38,60 37,57 35,56 C33,55 30,57 30,60" fill="#000000"/>
  <path d="M70,60 C70,57 67,55 65,56 C63,57 62,60 64,62 C62,62 60,64 61,66 C62,68 66,68 68,66 L68,68 L72,68 L72,66 C74,68 78,68 79,66 C80,64 78,62 76,62 C78,60 77,57 75,56 C73,55 70,57 70,60" fill="#000000"/>
  <path d="M30,85 C30,82 27,80 25,81 C23,82 22,85 24,87 C22,87 20,89 21,91 C22,93 26,93 28,91 L28,93 L32,93 L32,91 C34,93 38,93 39,91 C40,89 38,87 36,87 C38,85 37,82 35,81 C33,80 30,82 30,85" fill="#000000"/>
  <path d="M70,85 C70,82 67,80 65,81 C63,82 62,85 64,87 C62,87 60,89 61,91 C62,93 66,93 68,91 L68,93 L72,93 L72,91 C74,93 78,93 79,91 C80,89 78,87 76,87 C78,85 77,82 75,81 C73,80 70,82 70,85" fill="#000000"/>
  <path d="M30,110 C30,107 27,105 25,106 C23,107 22,110 24,112 C22,112 20,114 21,116 C22,118 26,118 28,116 L28,118 L32,118 L32,116 C34,118 38,118 39,116 C40,114 38,112 36,112 C38,110 37,107 35,106 C33,105 30,107 30,110" fill="#000000"/>
  <path d="M70,110 C70,107 67,105 65,106 C63,107 62,110 64,112 C62,112 60,114 61,116 C62,118 66,118 68,116 L68,118 L72,118 L72,116 C74,118 78,118 79,116 C80,114 78,112 76,112 C78,110 77,107 75,106 C73,105 70,107 70,110" fill="#000000"/>
  <path d="M50,75 C50,72 47,70 45,71 C43,72 42,75 44,77 C42,77 40,79 41,81 C42,83 46,83 48,81 L48,83 L52,83 L52,81 C54,83 58,83 59,81 C60,79 58,77 56,77 C58,75 57,72 55,71 C53,70 50,72 50,75" fill="#000000"/>
</svg>