<svg xmlns="http://www.w3.org/2000/svg" viewBox="0 0 100 150">
  <!-- Card background with rounded corners -->
  <rect x="5" y="5" width="90" height="140" rx="10" ry="10" fill="white" stroke="#e2e8f0" stroke-width="2"/>
  
  <!-- Top left value and suit -->
  <text x="15" y="30" font-family="Arial" font-size="24" font-weight="bold" fill="#000000">8</text>
  <text x="15" y="50" font-family="Arial" font-size="24" fill="#000000">♠</text>
  
  <!-- Bottom right value and suit (inverted) -->
  <text x="85" y="145" font-family="Arial" font-size="24" font-weight="bold" fill="#000000" text-anchor="end" transform="rotate(180, 85, 145)">8</text>
  <text x="85" y="125" font-family="Arial" font-size="24" fill="#000000" text-anchor="end" transform="rotate(180, 85, 125)">♠</text>
  
  <!-- Center spade symbols -->
  <path d="M30,30 C25,35 15,40 15,50 C15,55 20,58 25,55 C27,53 28,51 28,49 C28,51 29,53 31,55 C36,58 41,55 41,50 C41,40 35,35 30,30" fill="#000000"/>
  <path d="M70,30 C65,35 55,40 55,50 C55,55 60,58 65,55 C67,53 68,51 68,49 C68,51 69,53 71,55 C76,58 81,55 81,50 C81,40 75,35 70,30" fill="#000000"/>
  <path d="M30,60 C25,65 15,70 15,80 C15,85 20,88 25,85 C27,83 28,81 28,79 C28,81 29,83 31,85 C36,88 41,85 41,80 C41,70 35,65 30,60" fill="#000000"/>
  <path d="M70,60 C65,65 55,70 55,80 C55,85 60,88 65,85 C67,83 68,81 68,79 C68,81 69,83 71,85 C76,88 81,85 81,80 C81,70 75,65 70,60" fill="#000000"/>
  <path d="M30,90 C25,95 15,100 15,110 C15,115 20,118 25,115 C27,113 28,111 28,109 C28,111 29,113 31,115 C36,118 41,115 41,110 C41,100 35,95 30,90" fill="#000000"/>
  <path d="M70,90 C65,95 55,100 55,110 C55,115 60,118 65,115 C67,113 68,111 68,109 C68,111 69,113 71,115 C76,118 81,115 81,110 C81,100 75,95 70,90" fill="#000000"/>
</svg>