<svg xmlns="http://www.w3.org/2000/svg" viewBox="0 0 100 150">
  <!-- Card background with rounded corners -->
  <rect x="5" y="5" width="90" height="140" rx="10" ry="10" fill="white" stroke="#e2e8f0" stroke-width="2"/>
  
  <!-- Top left value and suit -->
  <text x="15" y="30" font-family="Arial" font-size="24" font-weight="bold" fill="#000000">4</text>
  <text x="15" y="50" font-family="Arial" font-size="24" fill="#000000">♠</text>
  
  <!-- Bottom right value and suit (inverted) -->
  <text x="85" y="145" font-family="Arial" font-size="24" font-weight="bold" fill="#000000" text-anchor="end" transform="rotate(180, 85, 145)">4</text>
  <text x="85" y="125" font-family="Arial" font-size="24" fill="#000000" text-anchor="end" transform="rotate(180, 85, 125)">♠</text>
  
  <!-- Center spade symbols -->
  <path d="M30,40 C25,45 15,50 15,60 C15,65 20,68 25,65 C27,63 28,61 28,59 C28,61 29,63 31,65 C36,68 41,65 41,60 C41,50 35,45 30,40" fill="#000000"/>
  <path d="M70,40 C65,45 55,50 55,60 C55,65 60,68 65,65 C67,63 68,61 68,59 C68,61 69,63 71,65 C76,68 81,65 81,60 C81,50 75,45 70,40" fill="#000000"/>
  <path d="M30,90 C25,95 15,100 15,110 C15,115 20,118 25,115 C27,113 28,111 28,109 C28,111 29,113 31,115 C36,118 41,115 41,110 C41,100 35,95 30,90" fill="#000000"/>
  <path d="M70,90 C65,95 55,100 55,110 C55,115 60,118 65,115 C67,113 68,111 68,109 C68,111 69,113 71,115 C76,118 81,115 81,110 C81,100 75,95 70,90" fill="#000000"/>
</svg>