<svg xmlns="http://www.w3.org/2000/svg" viewBox="0 0 100 150">
  <!-- Card background with rounded corners -->
  <rect x="5" y="5" width="90" height="140" rx="10" ry="10" fill="white" stroke="#e2e8f0" stroke-width="2"/>
  
  <!-- Top left value and suit -->
  <text x="15" y="30" font-family="Arial" font-size="24" font-weight="bold" fill="#000000">Q</text>
  <text x="15" y="50" font-family="Arial" font-size="24" fill="#000000">♠</text>
  
  <!-- Bottom right value and suit (inverted) -->
  <text x="85" y="145" font-family="Arial" font-size="24" font-weight="bold" fill="#000000" text-anchor="end" transform="rotate(180, 85, 145)">Q</text>
  <text x="85" y="125" font-family="Arial" font-size="24" fill="#000000" text-anchor="end" transform="rotate(180, 85, 125)">♠</text>
  
  <!-- Center spade symbol -->
  <path d="M50,50 C42,60 30,65 30,75 C30,85 40,90 48,85 C50,83 51,80 51,78 L49,78 C49,80 50,83 52,85 C60,90 70,85 70,75 C70,65 58,60 50,50" fill="#000000"/>
  
  <!-- Queen symbol (simplified crown) -->
  <path d="M35,105 L65,105 L60,95 L55,100 L50,95 L45,100 L40,95 Z" fill="#000000"/>
</svg>