<svg xmlns="http://www.w3.org/2000/svg" viewBox="0 0 100 150">
  <!-- Card background with rounded corners -->
  <rect x="5" y="5" width="90" height="140" rx="10" ry="10" fill="white" stroke="#e2e8f0" stroke-width="2"/>
  
  <!-- Top left value and suit -->
  <text x="15" y="30" font-family="Arial" font-size="24" font-weight="bold" fill="#000000">8</text>
  <text x="15" y="50" font-family="Arial" font-size="24" fill="#000000">♣</text>
  
  <!-- Bottom right value and suit (inverted) -->
  <text x="85" y="145" font-family="Arial" font-size="24" font-weight="bold" fill="#000000" text-anchor="end" transform="rotate(180, 85, 145)">8</text>
  <text x="85" y="125" font-family="Arial" font-size="24" fill="#000000" text-anchor="end" transform="rotate(180, 85, 125)">♣</text>
  
  <!-- Center club symbols -->
  <path d="M30,30 C25,30 20,35 22,40 C15,40 10,45 15,52 C20,59 27,55 30,48 C33,55 40,59 45,52 C50,45 45,40 38,40 C40,35 35,30 30,30" fill="#000000"/>
  <path d="M70,30 C65,30 60,35 62,40 C55,40 50,45 55,52 C60,59 67,55 70,48 C73,55 80,59 85,52 C90,45 85,40 78,40 C80,35 75,30 70,30" fill="#000000"/>
  <path d="M30,70 C25,70 20,75 22,80 C15,80 10,85 15,92 C20,99 27,95 30,88 C33,95 40,99 45,92 C50,85 45,80 38,80 C40,75 35,70 30,70" fill="#000000"/>
  <path d="M70,70 C65,70 60,75 62,80 C55,80 50,85 55,92 C60,99 67,95 70,88 C73,95 80,99 85,92 C90,85 85,80 78,80 C80,75 75,70 70,70" fill="#000000"/>
  <path d="M30,110 C25,110 20,115 22,120 C15,120 10,125 15,132 C20,139 27,135 30,128 C33,135 40,139 45,132 C50,125 45,120 38,120 C40,115 35,110 30,110" fill="#000000"/>
  <path d="M70,110 C65,110 60,115 62,120 C55,120 50,125 55,132 C60,139 67,135 70,128 C73,135 80,139 85,132 C90,125 85,120 78,120 C80,115 75,110 70,110" fill="#000000"/>
  <path d="M50,50 C45,50 40,55 42,60 C35,60 30,65 35,72 C40,79 47,75 50,68 C53,75 60,79 65,72 C70,65 65,60 58,60 C60,55 55,50 50,50" fill="#000000"/>
  <path d="M50,90 C45,90 40,95 42,100 C35,100 30,105 35,112 C40,119 47,115 50,108 C53,115 60,119 65,112 C70,105 65,100 58,100 C60,95 55,90 50,90" fill="#000000"/>
</svg>