<svg xmlns="http://www.w3.org/2000/svg" viewBox="0 0 100 150">
  <!-- Card background with rounded corners -->
  <rect x="5" y="5" width="90" height="140" rx="10" ry="10" fill="white" stroke="#e2e8f0" stroke-width="2"/>
  
  <!-- Top left value and suit -->
  <text x="15" y="30" font-family="Arial" font-size="24" font-weight="bold" fill="#E31B23">10</text>
  <text x="15" y="50" font-family="Arial" font-size="24" fill="#E31B23">♥</text>
  
  <!-- Bottom right value and suit (inverted) -->
  <text x="85" y="145" font-family="Arial" font-size="24" font-weight="bold" fill="#E31B23" text-anchor="end" transform="rotate(180, 85, 145)">10</text>
  <text x="85" y="125" font-family="Arial" font-size="24" fill="#E31B23" text-anchor="end" transform="rotate(180, 85, 125)">♥</text>
  
  <!-- Center heart symbols -->
  <path d="M25,25 C20,20 10,20 10,30 C10,40 25,50 25,50 C25,50 40,40 40,30 C40,20 30,20 25,25" fill="#E31B23"/>
  <path d="M75,25 C70,20 60,20 60,30 C60,40 75,50 75,50 C75,50 90,40 90,30 C90,20 80,20 75,25" fill="#E31B23"/>
  <path d="M25,55 C20,50 10,50 10,60 C10,70 25,80 25,80 C25,80 40,70 40,60 C40,50 30,50 25,55" fill="#E31B23"/>
  <path d="M75,55 C70,50 60,50 60,60 C60,70 75,80 75,80 C75,80 90,70 90,60 C90,50 80,50 75,55" fill="#E31B23"/>
  <path d="M25,85 C20,80 10,80 10,90 C10,100 25,110 25,110 C25,110 40,100 40,90 C40,80 30,80 25,85" fill="#E31B23"/>
  <path d="M75,85 C70,80 60,80 60,90 C60,100 75,110 75,110 C75,110 90,100 90,90 C90,80 80,80 75,85" fill="#E31B23"/>
  <path d="M50,40 C45,35 35,35 35,45 C35,55 50,65 50,65 C50,65 65,55 65,45 C65,35 55,35 50,40" fill="#E31B23"/>
  <path d="M50,70 C45,65 35,65 35,75 C35,85 50,95 50,95 C50,95 65,85 65,75 C65,65 55,65 50,70" fill="#E31B23"/>
  <path d="M25,115 C20,110 10,110 10,120 C10,130 25,140 25,140 C25,140 40,130 40,120 C40,110 30,110 25,115" fill="#E31B23"/>
  <path d="M75,115 C70,110 60,110 60,120 C60,130 75,140 75,140 C75,140 90,130 90,120 C90,110 80,110 75,115" fill="#E31B23"/>
</svg>