<svg xmlns="http://www.w3.org/2000/svg" viewBox="0 0 100 150">
  <!-- Card background with rounded corners -->
  <rect x="5" y="5" width="90" height="140" rx="10" ry="10" fill="white" stroke="#e2e8f0" stroke-width="2"/>
  
  <!-- Top left value and suit -->
  <text x="15" y="30" font-family="Arial" font-size="24" font-weight="bold" fill="#E31B23">8</text>
  <text x="15" y="50" font-family="Arial" font-size="24" fill="#E31B23">♥</text>
  
  <!-- Bottom right value and suit (inverted) -->
  <text x="85" y="145" font-family="Arial" font-size="24" font-weight="bold" fill="#E31B23" text-anchor="end" transform="rotate(180, 85, 145)">8</text>
  <text x="85" y="125" font-family="Arial" font-size="24" fill="#E31B23" text-anchor="end" transform="rotate(180, 85, 125)">♥</text>
  
  <!-- Heart symbols -->
  <path d="M30,35 C27,32 22,32 22,37 C22,42 30,47 30,47 C30,47 38,42 38,37 C38,32 33,32 30,35" fill="#E31B23"/>
  <path d="M70,35 C67,32 62,32 62,37 C62,42 70,47 70,47 C70,47 78,42 78,37 C78,32 73,32 70,35" fill="#E31B23"/>
  <path d="M30,65 C27,62 22,62 22,67 C22,72 30,77 30,77 C30,77 38,72 38,67 C38,62 33,62 30,65" fill="#E31B23"/>
  <path d="M70,65 C67,62 62,62 62,67 C62,72 70,77 70,77 C70,77 78,72 78,67 C78,62 73,62 70,65" fill="#E31B23"/>
  <path d="M30,95 C27,92 22,92 22,97 C22,102 30,107 30,107 C30,107 38,102 38,97 C38,92 33,92 30,95" fill="#E31B23"/>
  <path d="M70,95 C67,92 62,92 62,97 C62,102 70,107 70,107 C70,107 78,102 78,97 C78,92 73,92 70,95" fill="#E31B23"/>
  <path d="M50,50 C47,47 42,47 42,52 C42,57 50,62 50,62 C50,62 58,57 58,52 C58,47 53,47 50,50" fill="#E31B23"/>
  <path d="M50,80 C47,77 42,77 42,82 C42,87 50,92 50,92 C50,92 58,87 58,82 C58,77 53,77 50,80" fill="#E31B23"/>
</svg>