<svg xmlns="http://www.w3.org/2000/svg" viewBox="0 0 100 150">
  <!-- Card background with rounded corners -->
  <rect x="5" y="5" width="90" height="140" rx="10" ry="10" fill="white" stroke="#e2e8f0" stroke-width="2"/>
  
  <!-- Top left value and suit -->
  <text x="15" y="30" font-family="Arial" font-size="24" font-weight="bold" fill="#000000">10</text>
  <text x="15" y="50" font-family="Arial" font-size="24" fill="#000000">♣</text>
  
  <!-- Bottom right value and suit (inverted) -->
  <text x="85" y="145" font-family="Arial" font-size="24" font-weight="bold" fill="#000000" text-anchor="end" transform="rotate(180, 85, 145)">10</text>
  <text x="85" y="125" font-family="Arial" font-size="24" fill="#000000" text-anchor="end" transform="rotate(180, 85, 125)">♣</text>
  
  <!-- Club symbols -->
  <path d="M30,30 C30,27 27,25 25,26 C23,27 22,30 24,32 C22,32 20,34 21,36 C22,38 26,38 28,36 L28,38 L32,38 L32,36 C34,38 38,38 39,36 C40,34 38,32 36,32 C38,30 37,27 35,26 C33,25 30,27 30,30" fill="#000000"/>
  <path d="M70,30 C70,27 67,25 65,26 C63,27 62,30 64,32 C62,32 60,34 61,36 C62,38 66,38 68,36 L68,38 L72,38 L72,36 C74,38 78,38 79,36 C80,34 78,32 76,32 C78,30 77,27 75,26 C73,25 70,27 70,30" fill="#000000"/>
  <path d="M30,50 C30,47 27,45 25,46 C23,47 22,50 24,52 C22,52 20,54 21,56 C22,58 26,58 28,56 L28,58 L32,58 L32,56 C34,58 38,58 39,56 C40,54 38,52 36,52 C38,50 37,47 35,46 C33,45 30,47 30,50" fill="#000000"/>
  <path d="M70,50 C70,47 67,45 65,46 C63,47 62,50 64,52 C62,52 60,54 61,56 C62,58 66,58 68,56 L68,58 L72,58 L72,56 C74,58 78,58 79,56 C80,54 78,52 76,52 C78,50 77,47 75,46 C73,45 70,47 70,50" fill="#000000"/>
  <path d="M30,70 C30,67 27,65 25,66 C23,67 22,70 24,72 C22,72 20,74 21,76 C22,78 26,78 28,76 L28,78 L32,78 L32,76 C34,78 38,78 39,76 C40,74 38,72 36,72 C38,70 37,67 35,66 C33,65 30,67 30,70" fill="#000000"/>
  <path d="M70,70 C70,67 67,65 65,66 C63,67 62,70 64,72 C62,72 60,74 61,76 C62,78 66,78 68,76 L68,78 L72,78 L72,76 C74,78 78,78 79,76 C80,74 78,72 76,72 C78,70 77,67 75,66 C73,65 70,67 70,70" fill="#000000"/>
  <path d="M30,90 C30,87 27,85 25,86 C23,87 22,90 24,92 C22,92 20,94 21,96 C22,98 26,98 28,96 L28,98 L32,98 L32,96 C34,98 38,98 39,96 C40,94 38,92 36,92 C38,90 37,87 35,86 C33,85 30,87 30,90" fill="#000000"/>
  <path d="M70,90 C70,87 67,85 65,86 C63,87 62,90 64,92 C62,92 60,94 61,96 C62,98 66,98 68,96 L68,98 L72,98 L72,96 C74,98 78,98 79,96 C80,94 78,92 76,92 C78,90 77,87 75,86 C73,85 70,87 70,90" fill="#000000"/>
  <path d="M30,110 C30,107 27,105 25,106 C23,107 22,110 24,112 C22,112 20,114 21,116 C22,118 26,118 28,116 L28,118 L32,118 L32,116 C34,118 38,118 39,116 C40,114 38,112 36,112 C38,110 37,107 35,106 C33,105 30,107 30,110" fill="#000000"/>
  <path d="M70,110 C70,107 67,105 65,106 C63,107 62,110 64,112 C62,112 60,114 61,116 C62,118 66,118 68,116 L68,118 L72,118 L72,116 C74,118 78,118 79,116 C80,114 78,112 76,112 C78,110 77,107 75,106 C73,105 70,107 70,110" fill="#000000"/>
</svg>