<?xml version="1.0" encoding="UTF-8"?>
<svg width="169" height="244" viewBox="0 0 169 244" fill="none" xmlns="http://www.w3.org/2000/svg">
  <!-- Card background -->
  <rect width="169" height="244" rx="12" fill="white" stroke="#E2E8F0" stroke-width="1"/>
  
  <!-- Top left rank and suit -->
  <text x="12" y="32" font-family="Arial" font-size="24" font-weight="bold" fill="#E31B23">10</text>
  <path d="M12 50 C9 52, 6 54, 6 57 C6 60, 9 60, 12 57 C15 60, 18 60, 18 57 C18 54, 15 52, 12 50 Z" fill="#E31B23"/>
  
  <!-- Bottom right rank and suit (inverted) -->
  <text x="157" y="212" font-family="Arial" font-size="24" font-weight="bold" fill="#E31B23" transform="rotate(180 157 212)">10</text>
  <path d="M157 194 C154 196, 151 198, 151 201 C151 204, 154 204, 157 201 C160 204, 163 204, 163 201 C163 198, 160 196, 157 194 Z" fill="#E31B23"/>
  
  <!-- Center hearts pattern -->
  <g transform="translate(84.5 122)">
    <!-- Row 1 -->
    <path d="M-40 -50 C-43 -48, -46 -46, -46 -43 C-46 -40, -43 -40, -40 -43 C-37 -40, -34 -40, -34 -43 C-34 -46, -37 -48, -40 -50 Z" fill="#E31B23"/>
    <path d="M0 -50 C-3 -48, -6 -46, -6 -43 C-6 -40, -3 -40, 0 -43 C3 -40, 6 -40, 6 -43 C6 -46, 3 -48, 0 -50 Z" fill="#E31B23"/>
    <path d="M40 -50 C37 -48, 34 -46, 34 -43 C34 -40, 37 -40, 40 -43 C43 -40, 46 -40, 46 -43 C46 -46, 43 -48, 40 -50 Z" fill="#E31B23"/>
    
    <!-- Row 2 -->
    <path d="M-40 -15 C-43 -13, -46 -11, -46 -8 C-46 -5, -43 -5, -40 -8 C-37 -5, -34 -5, -34 -8 C-34 -11, -37 -13, -40 -15 Z" fill="#E31B23"/>
    <path d="M40 -15 C37 -13, 34 -11, 34 -8 C34 -5, 37 -5, 40 -8 C43 -5, 46 -5, 46 -8 C46 -11, 43 -13, 40 -15 Z" fill="#E31B23"/>
    
    <!-- Row 3 -->
    <path d="M-40 20 C-43 22, -46 24, -46 27 C-46 30, -43 30, -40 27 C-37 30, -34 30, -34 27 C-34 24, -37 22, -40 20 Z" fill="#E31B23"/>
    <path d="M0 20 C-3 22, -6 24, -6 27 C-6 30, -3 30, 0 27 C3 30, 6 30, 6 27 C6 24, 3 22, 0 20 Z" fill="#E31B23"/>
    <path d="M40 20 C37 22, 34 24, 34 27 C34 30, 37 30, 40 27 C43 30, 46 30, 46 27 C46 24, 43 22, 40 20 Z" fill="#E31B23"/>
    
    <!-- Row 4 -->
    <path d="M-40 55 C-43 57, -46 59, -46 62 C-46 65, -43 65, -40 62 C-37 65, -34 65, -34 62 C-34 59, -37 57, -40 55 Z" fill="#E31B23"/>
    <path d="M40 55 C37 57, 34 59, 34 62 C34 65, 37 65, 40 62 C43 65, 46 65, 46 62 C46 59, 43 57, 40 55 Z" fill="#E31B23"/>
  </g>
</svg>