<?xml version="1.0" encoding="UTF-8"?>
<svg width="169" height="244" viewBox="0 0 169 244" fill="none" xmlns="http://www.w3.org/2000/svg">
  <!-- Card background -->
  <rect width="169" height="244" rx="12" fill="white" stroke="#E2E8F0" stroke-width="1"/>
  
  <!-- Top left rank and suit -->
  <text x="12" y="32" font-family="Arial" font-size="24" font-weight="bold" fill="#E31B23">10</text>
  <path d="M12 45 L15 50 L12 55 L9 50 Z" fill="#E31B23"/>
  
  <!-- Bottom right rank and suit (inverted) -->
  <text x="157" y="212" font-family="Arial" font-size="24" font-weight="bold" fill="#E31B23" transform="rotate(180 157 212)">10</text>
  <path d="M157 189 L160 194 L157 199 L154 194 Z" fill="#E31B23"/>
  
  <!-- Center diamonds pattern -->
  <g transform="translate(84.5 122)">
    <!-- Row 1 -->
    <path d="M-40 -50 L-35 -45 L-40 -40 L-45 -45 Z" fill="#E31B23"/>
    <path d="M0 -50 L5 -45 L0 -40 L-5 -45 Z" fill="#E31B23"/>
    <path d="M40 -50 L45 -45 L40 -40 L35 -45 Z" fill="#E31B23"/>
    
    <!-- Row 2 -->
    <path d="M-40 -15 L-35 -10 L-40 -5 L-45 -10 Z" fill="#E31B23"/>
    <path d="M40 -15 L45 -10 L40 -5 L35 -10 Z" fill="#E31B23"/>
    
    <!-- Row 3 -->
    <path d="M-40 20 L-35 25 L-40 30 L-45 25 Z" fill="#E31B23"/>
    <path d="M0 20 L5 25 L0 30 L-5 25 Z" fill="#E31B23"/>
    <path d="M40 20 L45 25 L40 30 L35 25 Z" fill="#E31B23"/>
    
    <!-- Row 4 -->
    <path d="M-40 55 L-35 60 L-40 65 L-45 60 Z" fill="#E31B23"/>
    <path d="M40 55 L45 60 L40 65 L35 60 Z" fill="#E31B23"/>
  </g>
</svg>