<svg xmlns="http://www.w3.org/2000/svg" viewBox="0 0 180 250">
  <!-- Card background -->
  <rect x="5" y="5" width="170" height="240" rx="12" ry="12" fill="white" stroke="#cccccc" stroke-width="2"/>
  
  <!-- Top left value and suit -->
  <text x="20" y="40" font-family="Arial" font-size="30" font-weight="bold" fill="#000000">2</text>
  <path d="M20 45 C15 50, 10 55, 10 60 C10 65, 15 70, 20 65 C22 63, 23 60, 23 58 L17 58 C17 60, 18 63, 20 65 C25 70, 30 65, 30 60 C30 55, 25 50, 20 45 Z" fill="#000000"/>
  
  <!-- Bottom right value and suit -->
  <text x="160" y="210" font-family="Arial" font-size="30" font-weight="bold" fill="#000000" text-anchor="end">2</text>
  <path d="M160 175 C155 180, 150 185, 150 190 C150 195, 155 200, 160 195 C162 193, 163 190, 163 188 L157 188 C157 190, 158 193, 160 195 C165 200, 170 195, 170 190 C170 185, 165 180, 160 175 Z" fill="#000000"/>
  
  <!-- Center spades -->
  <path d="M90 70 C75 85, 60 95, 60 110 C60 125, 75 130, 85 120 C88 117, 90 113, 90 110 L90 110 C90 113, 92 117, 95 120 C105 130, 120 125, 120 110 C120 95, 105 85, 90 70 Z" fill="#000000"/>
  <path d="M90 130 C75 145, 60 155, 60 170 C60 185, 75 190, 85 180 C88 177, 90 173, 90 170 L90 170 C90 173, 92 177, 95 180 C105 190, 120 185, 120 170 C120 155, 105 145, 90 130 Z" fill="#000000"/>
</svg>