<svg width="32" height="32" viewBox="0 0 32 32" fill="none" xmlns="http://www.w3.org/2000/svg">
  <defs>
    <linearGradient id="brainGradient" x1="0%" y1="0%" x2="100%" y2="100%">
      <stop offset="0%" style="stop-color:#3B82F6"/>
      <stop offset="100%" style="stop-color:#60A5FA"/>
    </linearGradient>
    <filter id="glow">
      <feGaussianBlur stdDeviation="1" result="coloredBlur"/>
      <feMerge>
        <feMergeNode in="coloredBlur"/>
        <feMergeNode in="SourceGraphic"/>
      </feMerge>
    </filter>
  </defs>
  <path d="M16 5C10.5 5 6 9.5 6 15c0 2.4.9 4.6 2.3 6.3-.3.9-.5 1.8-.5 2.7 0 4.4 3.6 8 8 8s8-3.6 8-8c0-.9-.2-1.8-.5-2.7C24.1 19.6 25 17.4 25 15c0-5.5-4.5-10-9-10z" fill="url(#brainGradient)" filter="url(#glow)"/>
  <path d="M13 12c0 1.1-.9 2-2 2s-2-.9-2-2 .9-2 2-2 2 .9 2 2z" fill="white" opacity="0.8"/>
  <path d="M21 12c0 1.1-.9 2-2 2s-2-.9-2-2 .9-2 2-2 2 .9 2 2z" fill="white" opacity="0.8"/>
  <path d="M12 19c0-2.2 1.8-4 4-4s4 1.8 4 4" stroke="white" stroke-width="1.5" stroke-linecap="round" opacity="0.8"/>
  <path d="M8 15c1-1 2.5-1.5 3.5-1 M23 15c-1-1-2.5-1.5-3.5-1" stroke="white" stroke-width="1.5" stroke-linecap="round" opacity="0.6"/>
</svg>